<?xml version="1.0" encoding="UTF-8"?>
<svg id="Capa_1" xmlns="http://www.w3.org/2000/svg" version="1.1" viewBox="0 0 314.28 293.89">
  <!-- Generator: Adobe Illustrator 30.1.0, SVG Export Plug-In . SVG Version: 2.1.1 Build 136)  -->
  <defs>
    <style>
      .st0 {
        fill: #da983a;
      }

      .st1 {
        fill: #8f9561;
      }

      .st2 {
        fill: #f07e07;
      }

      .st3 {
        fill: #683f30;
      }
    </style>
  </defs>
  <path class="st3" d="M95.43,132.78c-.4,0-.8-.09-1.16-.27l-9.28-5.98c-.35-.35-.46-.88-.27-1.35.29-.7,1.14-.96,1.99-.54l7.97,4.9-.6-8.36-2.6-2.62c-.3-.6-.29-1.29.03-1.8.22-.36.57-.57.92-.57.23,0,.65.09.97.69l2.33,2.33,1.72-1.72c.23-.23.47-.28.62-.28.34,0,.65.24.81.62.18.42.16,1.05-.27,1.48l-1.85,2.48.64,7.74c.33,1.28,0,2.06-.33,2.49-.38.49-.98.76-1.66.76"/>
  <path class="st3" d="M85.27,126.19l9.24,5.95c.26.13.59.21.92.21.54,0,1.02-.22,1.31-.59.27-.35.53-.99.25-2.11l-.67-7.98,1.95-2.61c.33-.33.34-.76.22-1.05-.15-.36-.46-.46-.72-.2l-2.03,2.03-2.72-2.75c-.2-.38-.43-.46-.59-.46-.2,0-.41.14-.55.37-.23.37-.24.87-.04,1.32l2.66,2.69.67,9.38-8.69-5.35c-.3-.15-.65-.19-.93-.08-.2.08-.35.22-.43.41-.12.29-.06.61.14.84M95.43,133.22c-.47,0-.93-.11-1.35-.32l-9.4-6.06c-.48-.48-.62-1.2-.36-1.83.17-.42.51-.74.93-.9.51-.19,1.1-.14,1.66.14l7.28,4.47-.53-7.35-2.57-2.62c-.36-.73-.34-1.59.05-2.23.3-.49.79-.78,1.29-.78.25,0,.88.09,1.32.86l1.98,1.98,1.41-1.41c.34-.34.69-.41.93-.41.52,0,.99.34,1.22.9.23.56.21,1.38-.37,1.95l-1.71,2.3.63,7.58c.36,1.39-.03,2.29-.42,2.79-.46.59-1.19.93-2,.93"/>
  <path class="st3" d="M105.22,131.76c-1.08,0-2.06-.96-2.06-2.02l.66-11.18c0-.44.45-.77,1.09-.77.79,0,1.59.5,1.59,1.45l-.61,9.15,7.27-4.85c1.05-.7,2.05-.45,2.33.47.24.79-.12,1.99-1.28,2.76l-7.17,3.91c-.63.9-1.34,1.09-1.83,1.09"/>
  <path class="st3" d="M104.91,118.23c-.25,0-.47.07-.58.18-.06.06-.07.11-.07.15l-.66,11.21c0,.79.79,1.56,1.62,1.56.56,0,1.05-.3,1.47-.9l.06-.08,7.26-3.96c.93-.62,1.25-1.63,1.07-2.24-.08-.26-.24-.43-.45-.51-.33-.12-.77-.01-1.22.28l-8.01,5.34.67-10.03c0-.66-.6-.98-1.16-.98M105.22,132.2c-1.33,0-2.49-1.15-2.49-2.46l.66-11.21c0-.26.11-.53.32-.74.28-.28.71-.44,1.2-.44.99,0,2.03.66,2.03,1.88l-.55,8.29,6.54-4.36c.69-.46,1.4-.59,2-.38.48.17.84.56.99,1.08.28.94-.12,2.36-1.45,3.25l-7.12,3.89c-.72.98-1.55,1.19-2.13,1.19"/>
  <path class="st3" d="M102.98,190.26c-.38,0-.78-.11-1.09-.29l-.09-.05-1.74-3.38c-.5,1.11-1.12,2.18-2.34,2.91-1.03.62-2,.61-2.25.05-.07-.17-.14-.52.26-.96.47-.52.94-.94,1.39-1.36.78-.71,1.44-1.32,1.78-2.09.38-.88.88-1.39,1.38-1.39.33,0,.58.22.66.57l2.82,4.38c.41.49.38.88.27,1.1-.15.33-.53.51-1.04.51"/>
  <path class="st3" d="M102.13,189.6c.51.29,1.34.27,1.49-.04.1-.22-.09-.49-.21-.64l-2.91-4.56c-.02-.11-.08-.23-.23-.23-.23,0-.62.29-.98,1.12-.37.86-1.07,1.5-1.88,2.24-.42.38-.89.82-1.36,1.33-.18.19-.24.37-.19.49.01.02.04.09.17.13.25.08.79.03,1.46-.37,1.06-.64,1.64-1.55,2.17-2.72l.37-.82,2.1,4.07ZM102.98,190.7c-.46,0-.94-.13-1.31-.35l-.19-.12-1.4-2.72c-.47.87-1.1,1.7-2.13,2.32-.8.47-1.59.64-2.18.45-.33-.1-.57-.32-.7-.61-.1-.22-.25-.79.34-1.44.49-.54.98-.99,1.42-1.39.74-.67,1.37-1.26,1.67-1.94.46-1.06,1.09-1.65,1.78-1.65.51,0,.92.32,1.06.83l2.78,4.32c.56.67.43,1.24.3,1.53-.23.48-.75.76-1.43.76"/>
  <path class="st3" d="M80.22,189.14c-.19-.17-.32-.56-.32-.94,0-.59.45-1.47,1.1-1.56,1.29-.61,3.6-1.11,6.03-1.63,2.72-.59,6.45-1.39,6.68-2.16.02-.07-.03-.17-.14-.28-12.8-12.77-13.93-18.7-11.54-25.77,1.19-3.53,3.1-6.37,4.79-8.89,2.12-3.17,3.8-5.67,3.15-8.15-.59-2.24-3.09-4.4-7.86-6.79l-8.94-5.66c-.39-.43-.47-1.23-.2-1.86.43-.95,1.5-1.12,2.65-.27,2.18,1.94,3.74,2.68,5.71,3.61,1.08.51,2.3,1.08,3.76,1.93,5.03,2.93,7.66,5.65,8.26,8.53.72,3.45-1.63,6.66-4.11,10.06-5.19,7.11-11.65,15.96,6.53,31.85.67.59.88,1.32.61,2.12-.91,2.63-7.35,5.73-15.5,6.17,0,0-.43-.13-.66-.33"/>
  <path class="st3" d="M73.46,126.98l8.88,5.62c4.86,2.43,7.43,4.68,8.05,7.05.71,2.67-1.02,5.24-3.2,8.49-1.67,2.5-3.57,5.32-4.74,8.79-2.34,6.9-1.21,12.71,11.43,25.32.24.24.33.48.25.72-.25.87-2.36,1.46-6.98,2.46-2.45.53-4.72,1.02-5.96,1.61l-.13.04c-.37.05-.73.68-.72,1.12,0,.31.11.56.18.62h0c.09.08.29.17.42.21,7.82-.44,14.19-3.44,15.03-5.87.21-.62.05-1.18-.48-1.65-18.49-16.15-11.89-25.18-6.6-32.43,2.43-3.32,4.72-6.46,4.04-9.72-.58-2.76-3.13-5.38-8.05-8.25-1.46-.85-2.66-1.42-3.73-1.92-2.01-.95-3.59-1.7-5.82-3.68-.48-.35-.99-.52-1.38-.41-.26.07-.45.25-.58.53-.2.44-.16,1.03.09,1.35M80.83,189.91l-.07-.02c-.09-.03-.54-.17-.82-.42-.34-.3-.47-.87-.47-1.26,0-.73.52-1.81,1.41-1.98,1.34-.62,3.63-1.11,6.05-1.63,1.87-.4,5.53-1.19,6.28-1.77-12.9-12.91-14.02-18.94-11.57-26.16,1.21-3.58,3.14-6.45,4.84-8.99,2.06-3.08,3.69-5.51,3.09-7.79-.56-2.11-2.98-4.18-7.64-6.51l-9.07-5.76c-.51-.56-.62-1.54-.27-2.33.23-.52.65-.89,1.16-1.02.65-.17,1.41.04,2.15.58,2.16,1.92,3.69,2.64,5.63,3.56,1.03.48,2.3,1.08,3.8,1.95,5.15,3,7.84,5.8,8.47,8.82.76,3.64-1.64,6.93-4.18,10.41-5.09,6.97-11.41,15.63,6.47,31.26.81.71,1.07,1.63.74,2.59-.95,2.75-7.29,6-15.89,6.47h-.07Z"/>
  <path class="st3" d="M104.3,183.48c-.21-.53-.26-1.35.68-2.23,17.83-16.61,11.14-24.83,5.23-32.08-2.69-3.3-5.22-6.41-4.65-9.88.48-2.91,3.04-5.73,8.04-8.87,1.45-.91,2.67-1.54,3.75-2.09,1.97-1.01,3.53-1.81,5.64-3.81,1.21-.96,2.29-.79,2.75.19.29.61.23,1.38-.14,1.81l-.07.07-8.76,5.93c-4.8,2.61-7.25,4.87-7.75,7.14-.54,2.49,1.27,4.92,3.58,7.99,1.83,2.44,3.91,5.21,5.28,8.69,2.76,6.97,1.88,12.94-10.6,26.22-.16.16-.13.25-.12.28.29.97,4.89,2.03,8.25,2.8,2.32.54,4.51,1.04,5.72,1.55.3.04.49.24.5.53,0,.54-.69,1.52-1.37,1.57-.26.02-1.03-.14-1.03-.14,0,0-13.58-2.31-14.91-5.68"/>
  <path class="st3" d="M104.71,183.32c1.01,2.58,10.86,4.78,14.57,5.41.36.07.8.15.93.13.42-.03.97-.79.97-1.13,0-.04,0-.09-.11-.1l-.12-.03c-1.18-.49-3.35-.99-5.65-1.53-5.67-1.31-8.25-2.07-8.57-3.1-.07-.24,0-.48.22-.71,12.32-13.11,13.21-18.96,10.52-25.76-1.36-3.42-3.41-6.16-5.23-8.58-2.37-3.16-4.24-5.66-3.66-8.35.52-2.4,3.06-4.76,7.97-7.43l8.75-5.93c.22-.26.25-.84.04-1.3-.14-.3-.35-.49-.62-.55-.4-.1-.92.09-1.46.52-2.13,2.02-3.71,2.83-5.71,3.86-1.07.54-2.27,1.16-3.72,2.07-4.89,3.07-7.38,5.79-7.84,8.57-.54,3.28,1.94,6.32,4.56,9.53,6.03,7.4,12.86,15.79-5.27,32.67-.61.57-.81,1.16-.58,1.75M120.2,189.73c-.32,0-.89-.11-1.07-.14-1.4-.24-13.85-2.45-15.23-5.95h0c-.21-.54-.39-1.61.79-2.71,17.53-16.33,10.97-24.38,5.19-31.48-2.75-3.37-5.35-6.56-4.74-10.23.5-3.05,3.12-5.96,8.24-9.17,1.48-.92,2.7-1.55,3.78-2.11,1.94-.99,3.47-1.78,5.53-3.74.78-.62,1.56-.87,2.24-.71.53.12.96.49,1.21,1.04.36.77.27,1.71-.21,2.28l-.12.11-8.8,5.96c-4.71,2.56-7.1,4.73-7.57,6.87-.5,2.3,1.26,4.65,3.5,7.63,1.85,2.47,3.95,5.26,5.35,8.79,2.82,7.13,1.95,13.21-10.65,26.63.69.75,5.5,1.86,7.86,2.41,2.3.53,4.48,1.04,5.74,1.55.48.09.81.47.81.95,0,.71-.82,1.94-1.78,2.01-.02,0-.05,0-.07,0"/>
  <path class="st0" d="M88.29,100.75l-.16-.09c-.98-.65-1.91-1.05-2.79-1.28-3.19,3.4-6.12,7.06-8.75,10.94.87,1.28.9,2.71.42,3.77-.68,1.47-2.24,2.21-3.93,1.89-1.86,3.25-3.51,6.64-4.94,10.14.45,1.2,1.08,2.33,1.88,3.28.23.27.49.55.78.81.35-.83.71-1.65,1.09-2.46-.46-.81-.52-1.9-.11-2.83.34-.77.96-1.31,1.74-1.51.18-.05.38-.06.57-.07,4.44-8.35,10.2-15.88,16.99-22.31-.86.28-1.79.2-2.77-.27"/>
  <path class="st0" d="M65.88,132.25c-2.53,7.8-4.01,16.08-4.26,24.7-.45,16,3.42,31.12,10.54,44.24-5.63-11.95-8.62-25.36-8.22-39.46.26-9.24,1.95-18.1,4.86-26.38-1.1-.88-2.08-1.93-2.92-3.1"/>
  <path class="st0" d="M94.14,97.41c-.2.52-.42.99-.65,1.4,3.52-3.09,7.28-5.9,11.26-8.4-2.35-.57-7.62-.81-10.61,7"/>
  <path class="st0" d="M151.78,71.71c-16.73-.47-32.5,3.78-46.04,11.54.49.07.97.16,1.44.27,1.97.46,3.93,1.27,5.67,2.4,12.21-5.95,25.99-9.13,40.5-8.72,41.11,1.15,74.75,30.64,82.75,69.22-6.13-41.29-41.14-73.5-84.32-74.71"/>
  <path class="st3" d="M94.28,132.51c.36.18.76.28,1.16.28.67,0,1.28-.28,1.66-.76.33-.42.65-1.21.33-2.49l-.65-7.74,1.85-2.48c.43-.43.45-1.05.27-1.48-.16-.39-.47-.62-.81-.62-.15,0-.39.05-.62.28l-1.72,1.72-2.33-2.33c-.32-.6-.74-.69-.97-.69-.35,0-.7.21-.92.57-.32.51-.33,1.2-.03,1.8l2.6,2.62.6,8.36-7.97-4.9c-.85-.43-1.7-.16-1.99.54-.19.47-.09.99.27,1.35l9.28,5.97Z"/>
  <path class="st3" d="M105.22,131.76c.49,0,1.2-.19,1.83-1.09l7.17-3.91c1.15-.77,1.52-1.97,1.28-2.76-.28-.91-1.28-1.17-2.33-.47l-7.27,4.85.61-9.15c0-.95-.8-1.45-1.59-1.45-.64,0-1.09.32-1.09.77l-.66,11.18c0,1.06.98,2.02,2.06,2.02"/>
  <path class="st3" d="M100.93,184.27c-.08-.35-.33-.57-.66-.57-.5,0-1,.51-1.38,1.39-.33.77-1,1.38-1.78,2.09-.45.41-.92.84-1.39,1.36-.4.44-.34.79-.26.96.25.57,1.22.57,2.25-.04,1.22-.73,1.84-1.8,2.34-2.91l1.74,3.38.09.05c.31.19.71.29,1.09.29.51,0,.88-.18,1.04-.51.11-.23.14-.61-.27-1.1l-2.81-4.38Z"/>
  <path class="st3" d="M95.77,181.17c-18.19-15.89-11.72-24.73-6.53-31.85,2.48-3.4,4.83-6.62,4.11-10.06-.6-2.89-3.23-5.6-8.26-8.54-1.46-.85-2.68-1.43-3.76-1.93-1.97-.93-3.53-1.67-5.71-3.61-1.09-.81-2.1-.69-2.56.12-.03.05-.06.09-.09.14,0,.02,0,.04-.02.06-.25.62-.17,1.38.21,1.8l6.58,4.17,2.22,1.4.14.09c4.77,2.39,7.27,4.55,7.86,6.79.65,2.48-1.02,4.98-3.15,8.15-1.68,2.51-3.59,5.36-4.79,8.89-2.39,7.07-1.26,13,11.54,25.77.12.12.16.21.14.28-.23.77-3.96,1.57-6.68,2.16-2.44.53-4.74,1.02-6.03,1.63-.65.09-1.11.96-1.1,1.56,0,.38.19.6.43.68l.33.59h.22c8.15-.45,14.6-3.56,15.5-6.18.27-.8.06-1.53-.61-2.12"/>
  <path class="st3" d="M125.74,124.72c-.46-.98-1.54-1.15-2.75-.19-2.11,2-3.67,2.8-5.64,3.81-1.08.55-2.3,1.18-3.75,2.09-5.01,3.14-7.56,5.96-8.04,8.87-.57,3.47,1.96,6.58,4.65,9.88,5.91,7.25,12.6,15.47-5.23,32.08-.94.88-.89,1.7-.68,2.23,1.33,3.37,13.36,5.7,15.68,5.85h.01c.07,0,.14,0,.2,0h.04s0-.04,0-.04c.66-.18,1.38-1.03,1.38-1.57,0-.29-.2-.5-.49-.53-1.21-.51-3.4-1.01-5.72-1.55-3.36-.77-7.95-1.84-8.24-2.8,0-.03-.04-.12.12-.28,12.48-13.28,13.37-19.25,10.61-26.22-1.38-3.48-3.45-6.24-5.29-8.69-2.3-3.07-4.12-5.5-3.58-7.99.5-2.27,2.95-4.53,7.75-7.14l8.76-5.92.07-.07c.37-.44.43-1.2.14-1.81"/>
  <path class="st1" d="M133.07,111.82c1.55-4.53.72-9.25-2.19-12.41-3.01-3.26-7.69-4.36-12.91-3.05,0-4.51-2.6-7.91-6.04-10-1.54-.93-3.24-1.61-4.95-2-.81-.19-1.64-.32-2.49-.39-5.82-.49-12.21,1.85-15.22,8.53-4.72-.74-9.68.9-13.66,4.51-4.1,3.72-6.56,8.97-6.32,13.46-6.5,3.67-7.07,11.54-4.81,17.37.45,1.17,1.04,2.31,1.74,3.36.81,1.23,1.79,2.34,2.89,3.27,1.93,1.61,4.26,2.63,6.91,2.63.87,0,1.77-.11,2.69-.34,1.35-.26,2.32-1.06,2.58-2.12.05-.2.07-.39.06-.59-.01-.53-.23-1.02-.62-1.34-.48-.4-1.16-.46-1.86-.23-.13.04-.26.08-.4.14-3.02.92-5.83.35-8.06-1.57-.38-.33-.75-.68-1.1-1.09-.68-.8-1.24-1.71-1.68-2.68-1.38-3.01-1.6-6.58-.36-9.08.76-1.52,2.36-3.29,5.76-3.12.16.04.32.06.48.08,1.18.11,2.2-.42,2.67-1.45.33-.72.34-1.68-.16-2.59-.25-.47-.63-.93-1.18-1.35-1.22-2.8.09-6.81,3.09-9.37,1.23-1.05,4.17-3,8.05-1.75.84.27,1.73.68,2.65,1.3.83.4,1.6.46,2.29.19.96-.38,1.73-1.38,2.37-3.05,2.32-6.05,6.75-8.85,11.87-7.48.19.05.37.11.55.17,4.58,1.49,7.86,5.81,7.24,9.66-.45,1.75.21,3.71,1.5,4.46,1.02.59,2.23.32,3.32-.75,3.28-3.21,7.16-2.78,9.37-1.03,1.85,1.47,3.19,4.54.87,8.36-1.08,1.74-1.3,3.38-.61,4.62.7,1.26,2.25,1.95,4.31,1.95h.02c1.99.3,2.95,1.27,2.83,2.89-.3,4.09-7.42,11.3-12.27,11.34-.79-.17-1.46.06-1.83.63-.47.72-.36,1.84.26,2.65.38.49,1.49,1.56,3.62.87,6.44-.83,13-7.21,14.04-13.65.7-4.31-1.21-7.84-5.37-9.98"/>
  <path class="st3" d="M174.56,174.14c-1.54,0-2.79.61-3.75,1.84-.96,1.23-1.44,2.84-1.44,4.84s.48,3.58,1.44,4.8c.96,1.22,2.21,1.83,3.75,1.83s2.82-.61,3.77-1.81c.95-1.21,1.42-2.82,1.42-4.82s-.48-3.64-1.43-4.85c-.95-1.21-2.21-1.82-3.76-1.82M174.56,170.46c3.28,0,5.86.92,7.73,2.76,1.88,1.85,2.81,4.39,2.81,7.63s-.94,5.78-2.82,7.64c-1.88,1.86-4.46,2.79-7.72,2.79s-5.84-.93-7.71-2.78c-1.87-1.86-2.8-4.41-2.8-7.65s.93-5.78,2.79-7.63c1.86-1.84,4.43-2.76,7.72-2.76"/>
  <polygon class="st3" points="138.24 162.06 143.58 162.06 143.58 173.68 154.12 173.68 154.12 162.06 159.48 162.06 159.48 190.77 154.12 190.77 154.12 178.06 143.58 178.06 143.58 190.77 138.24 190.77 138.24 162.06"/>
  <path class="st3" d="M196.79,164.52v6.45h4.77v3.74h-4.77v8.68c0,1.47.23,2.53.68,3.18.46.64,1.21.96,2.25.96.27,0,.57-.03.9-.09.33-.06.68-.14,1.05-.26l.08,3.57c-.56.15-1.14.27-1.73.34-.6.08-1.19.12-1.77.12-2.34,0-4.02-.58-5.03-1.74-1.02-1.16-1.53-3.08-1.53-5.78v-8.98h-3.91v-3.74h4.14v-4.8l4.88-1.64Z"/>
  <path class="st3" d="M218.24,179.09c-.14-1.68-.61-2.98-1.41-3.92-.8-.93-1.84-1.4-3.13-1.4s-2.39.47-3.24,1.4c-.85.93-1.37,2.24-1.56,3.92h9.34ZM222.83,180.66v1.6h-13.94c.14,1.67.79,2.98,1.93,3.94,1.15.96,2.67,1.44,4.55,1.44,1.03,0,2.03-.12,3-.36.97-.24,1.91-.6,2.81-1.09v3.91c-.97.4-2.01.69-3.13.89-1.12.2-2.31.3-3.58.3-3.31,0-5.89-.95-7.75-2.85-1.86-1.9-2.79-4.54-2.79-7.91,0-3,.91-5.43,2.72-7.28s4.17-2.78,7.08-2.78,5.11.89,6.7,2.68c1.6,1.78,2.4,4.29,2.4,7.52"/>
  <rect class="st3" x="226.47" y="162.21" width="5.07" height="28.56"/>
  <path class="st3" d="M92.15,208.35c.3-2.64.65-4.42,1.04-5.32.39-.9.97-1.71,1.74-2.42-.36-.61-.71-.92-1.06-.92-.69,0-1.66.39-2.91,1.15-1.25.77-2.29,1.88-3.11,3.31-.82,1.44-1.46,4.05-1.92,7.82-.46,3.77-1.21,6.61-2.26,8.51-1.05,1.9-2.29,2.85-3.71,2.85s-2.12-.84-2.12-2.51c0-.15.05-.59.16-1.32.11-.73.16-1.15.16-1.27,0-.75-.24-1.13-.72-1.13-.29,0-.87.22-1.74.67-.86.44-1.61.96-2.24,1.54-.08.34-.12.76-.12,1.27,0,1.4.47,2.49,1.41,3.25.94.76,2.29,1.15,4.06,1.15,1.98,0,3.84-.44,5.56-1.32,1.72-.88,3.15-2.09,4.27-3.64,1.12-1.55,1.91-3.22,2.37-5.01.46-1.79.84-4.01,1.14-6.65"/>
  <path class="st3" d="M103.71,202.69c0-2.19-1.02-3.99-3.05-5.4-2.03-1.4-4.68-2.11-7.96-2.11-3.06,0-5.78.54-8.14,1.62-2.36,1.07-4.19,2.5-5.49,4.27-1.3,1.77-1.95,3.47-1.95,5.08,0,.93.26,1.83.8,2.69.53.87,1.06,1.3,1.58,1.3.33,0,1.03-.23,2.09-.67,1.06-.45,1.59-.82,1.59-1.13v-.63c0-.12-.16-.25-.48-.39-1.25-.55-1.88-1.42-1.88-2.59,0-1.99,1.1-3.81,3.31-5.45,2.21-1.64,4.7-2.46,7.47-2.46,2.06,0,3.71.56,4.92,1.68,1.22,1.12,1.83,2.63,1.83,4.5,0,1.36-.33,2.62-.98,3.77-.65,1.15-1.69,1.73-3.12,1.73l-.2,1.49c1.75.27,2.62,1.66,2.62,4.15,0,2.06-.35,4.1-1.03,6.13-.68,2.03-1.48,3.05-2.37,3.05-.55,0-.86-.52-.94-1.55-.1-1.31-.43-1.96-.98-1.96-.4,0-.83.37-1.3,1.08-.47.72-.7,1.3-.7,1.72,0,.64.37,1.18,1.1,1.63.73.45,1.64.68,2.74.68,2.48,0,4.6-.87,6.38-2.61,1.78-1.74,2.67-3.82,2.67-6.24,0-3.32-1.78-5.55-5.33-6.68,4.53-1.2,6.79-3.43,6.79-6.7"/>
  <path class="st3" d="M210.15,201.22c1.12-1.13,1.87-2.44,2.22-3.92l-4.59.49c-.73,2.11-2.09,4.35-4.07,6.7l1.22.43c2.35-1.34,4.09-2.57,5.22-3.7"/>
  <path class="st3" d="M203.21,214.15c0,1.85.63,3.58,1.88,5.19-1.1,1.78-2.13,2.67-3.08,2.67-.76,0-1.35-.38-1.77-1.14-.43-.76-.64-1.83-.64-3.2,0-2.48.49-4.65,1.47-6.5.98-1.85,2.34-2.78,4.06-2.78.38,0,.66.05.86.12-1.85,1.58-2.78,3.46-2.78,5.64M170.44,210.82c.79-1.38,1.64-2.06,2.52-2.06.93,0,1.39.66,1.39,1.96,0,2.64-1.7,4.46-5.11,5.43,0-2.19.4-3.97,1.2-5.34M133.06,217.54c-1.35,2.51-2.78,3.77-4.28,3.77-.49,0-.92-.19-1.27-.55-.35-.37-.53-.81-.53-1.33,0-1.91.66-4.18,1.97-6.83,1.31-2.64,2.76-3.96,4.34-3.96.51,0,.93.22,1.28.67.35.45.52,1.02.52,1.72,0,1.83-.68,3.99-2.03,6.51M112.8,214.15c0,1.85.63,3.58,1.88,5.19-1.11,1.78-2.13,2.67-3.08,2.67-.76,0-1.35-.38-1.77-1.14-.43-.76-.64-1.83-.64-3.2,0-2.48.49-4.65,1.47-6.5.98-1.85,2.33-2.78,4.06-2.78.37,0,.66.05.86.12-1.85,1.58-2.77,3.46-2.77,5.64M227.44,221.53c-.66,0-.98-.41-.98-1.23,0-.61.39-1.95,1.18-4.01,1.14-2.99,1.72-5.15,1.72-6.45,0-.79-.23-1.45-.68-1.97-.45-.52-1.01-.78-1.69-.78-.99,0-2.13.48-3.42,1.44-1.28.96-3.01,2.69-5.2,5.18.32-1.62.99-3.84,2.02-6.66l-4.88.96c-1.1,2.45-1.9,4.66-2.4,6.62-.25.97-.43,1.96-.56,2.99-1.39,1.58-2.52,2.36-3.41,2.36-.75,0-1.46-.32-2.14-.96,1.36-3.71,2.04-6.83,2.04-9.38,0-.52-.06-.94-.18-1.29-.12-.34-.44-.64-.97-.89-.53-.25-1.36-.38-2.49-.38-3,0-5.57,1.12-7.73,3.34-2,2.06-3.06,4.51-3.21,7.33-1.43,1.4-2.36,2.28-2.79,2.6-.44.33-.9.5-1.38.5-.44,0-.79-.17-1.05-.51-.26-.34-.39-.8-.39-1.37,0-.61.11-1.32.34-2.11.22-.8.73-2.3,1.5-4.51l1.86-5.24-1.82.09c-1.65,3.22-3.58,4.94-5.79,5.19.6-1.59.9-2.82.9-3.68,0-1.09-.52-1.64-1.56-1.64-1.23,0-2.19.59-2.89,1.79-.7,1.19-1.05,2.31-1.05,3.36s.57,1.79,1.72,2.31c-.72,1.09-1.52,2.1-2.39,3.06-1.61,1.65-2.81,2.72-3.6,3.2-.8.48-1.64.72-2.52.72-2.25,0-3.64-1.33-4.17-3.99,5.86-1.76,8.79-4.04,8.79-6.86,0-1.06-.37-1.92-1.12-2.58-.75-.65-1.74-.98-2.97-.98-2.38,0-4.55,1.18-6.51,3.51-1.78,2.13-2.74,4.48-2.9,7.06l-1.57,1.51c-1.36,1.29-2.39,1.94-3.08,1.94-.85,0-1.28-.64-1.28-1.92,0-.67.23-1.83.7-3.5.47-1.66,1.33-4.54,2.59-8.64l-5.44,1.12-2.62,8.71c-.25.86-.89,1.86-1.91,3.01-1.03,1.15-1.89,1.73-2.58,1.73-.96,0-1.44-.65-1.44-1.96,0-1.85,1.1-6.04,3.3-12.57l-5.33,1.09c-1.36,3.77-2.22,6.91-2.59,9.44-2.64,2.64-5.05,5.52-7.24,8.65l5.22-19.24h-1.33c-.99.88-2.18,1.72-3.57,2.51-.57-1.67-1.73-2.51-3.48-2.51s-3.41.63-5.16,1.9c-1.75,1.27-3.18,2.91-4.29,4.95-.7,1.27-1.15,2.53-1.41,3.77v-.07c-1.4,1.59-2.55,2.38-3.44,2.38-.74,0-1.46-.32-2.13-.96,1.36-3.71,2.04-6.83,2.04-9.38,0-.52-.06-.94-.18-1.29-.12-.34-.45-.64-.97-.89-.53-.25-1.36-.38-2.49-.38-3,0-5.57,1.12-7.73,3.34-2.15,2.23-3.23,4.89-3.23,8,0,1.96.48,3.54,1.44,4.72.96,1.18,2.21,1.78,3.76,1.78,2.48,0,4.67-1.49,6.59-4.46.95.76,1.9,1.14,2.86,1.14.37,0,.87-.13,1.51-.38.56-.22,1.14-.61,1.74-1.11.04,1.35.43,2.48,1.18,3.38.8.94,1.8,1.42,3.02,1.42,2.19,0,4.47-1.54,6.83-4.62l-4.14,14.65c1.27-.37,2.99-.69,5.16-.96,1.29-4,4.38-8.6,9.25-13.78,0,1.45.31,2.61.92,3.46.61.86,1.42,1.29,2.44,1.29,1.1,0,2.23-.39,3.39-1.18,1.16-.78,2.47-2,3.93-3.65,0,1.47.28,2.64.85,3.49.56.86,1.37,1.29,2.43,1.29.94,0,2.01-.41,3.19-1.22,1.19-.81,2.65-2.06,4.41-3.76.22,1.26.73,2.33,1.54,3.2,1.11,1.18,2.57,1.78,4.38,1.78,1.62,0,3.11-.41,4.46-1.22,1.34-.81,2.86-2.06,4.55-3.77h.02c1.85-1.88,3.21-3.64,4.07-5.28,1.17-.2,2.25-.56,3.24-1.08-2.01,3.23-3.02,5.8-3.02,7.73,0,1.03.28,1.9.84,2.61.56.7,1.25,1.05,2.06,1.05,1.8,0,4.35-1.66,7.66-4.96.2,1.24.62,2.3,1.31,3.14.96,1.18,2.21,1.78,3.76,1.78,2.48,0,4.67-1.49,6.59-4.46.95.76,1.9,1.14,2.86,1.14.37,0,.88-.13,1.52-.38.58-.22,1.17-.62,1.78-1.14,0,.26-.02.51-.02.77,0,.9.07,2.27.22,4.11l4.42-1.07c0-1.23.02-2.2.06-2.92.07-.97.2-2.03.4-3.19.12-.68.43-1.33.92-1.94l1.12-1.33c.41-.49.8-.92,1.16-1.31.41-.45.79-.83,1.12-1.15.37-.34.7-.61.98-.8.31-.19.55-.29.74-.29.33,0,.5.22.5.65s-.31,1.46-.94,3.07c-1.18,3-1.76,5.22-1.76,6.68,0,1.07.27,1.93.82,2.57.54.64,1.26.96,2.16.96,2.19,0,4.83-1.67,7.91-4.99v-2.35c-2.17,2.63-3.75,3.94-4.72,3.94"/>
  <path class="st2" d="M239.27,154.22l-55.57-35.48v-.23s-54.95,35.56-54.95,35.56c-1.46,1.13-4.51,2.98-3.28,5.35.68,1.23,2.38,1.8,4,.91l54.1-34.85,54.84,34.87c1.64.89,3.38.35,4.11-.84,1.32-2.3-1.78-4.15-3.25-5.28"/>
  <path class="st3" d="M146.25,95.61c-.17-.11-.26-.31-.36-.73-.09-.38,0-.62.14-.73,1.4-1.01,11.13-3.22,14.67-2.12,1.36.43,3.23,2.91,4.57,3.4,2.61.96,4.52-1.91,6.12-1.95,1.05-.03,3.45,1.47,3.36,2.51-.08.94-2.73,1.73-3.78,2-.21.06-.33.28-.26.49.36.97,1.1,3.7-.11,7.25-1.27,3.73-4.64,9.29-6.52,9.77-.15.04-.31-.18-.28-.57.17-2.12.88-9.02-1.2-9.69-1.89-.61-9.21,2.23-11.09,2.98-.22.09-.46-.05-.5-.28-.12-.79-.45-2.41-1.27-3.29-.18-.2-.12-.5.12-.6,1.99-.78,8.34-3.35,7.48-4.04-2.79-2.2-8.6-2.77-11.12-4.39"/>
  <path class="st3" d="M194.54,113.16c-.11-.07-.17-.21-.24-.49-.06-.26,0-.42.1-.49.94-.68,7.43-2.15,9.8-1.42.91.28,2.16,1.94,3.05,2.27,1.74.64,3.02-1.28,4.09-1.3.7-.02,2.31.98,2.24,1.68-.06.63-1.82,1.15-2.52,1.34-.14.04-.22.19-.17.33.24.65.74,2.47-.07,4.84-.85,2.49-3.1,6.2-4.36,6.52-.1.03-.21-.12-.19-.38.11-1.42.59-6.02-.8-6.47-1.26-.41-6.15,1.49-7.4,1.99-.15.06-.31-.03-.33-.19-.08-.53-.3-1.61-.85-2.2-.12-.13-.08-.34.08-.4,1.32-.52,5.57-2.24,4.99-2.7-1.86-1.47-5.75-1.85-7.42-2.93"/>
  <path class="st3" d="M184.32,68.06c-.11-.07-.17-.21-.24-.49-.06-.26,0-.42.1-.49.94-.68,7.43-2.15,9.8-1.42.91.28,2.16,1.94,3.05,2.27,1.74.64,3.02-1.28,4.09-1.3.7-.02,2.31.98,2.24,1.68-.06.63-1.82,1.15-2.52,1.34-.14.04-.22.19-.17.33.24.65.74,2.47-.07,4.84-.85,2.49-3.1,6.2-4.36,6.52-.1.03-.21-.12-.19-.38.11-1.42.59-6.02-.8-6.47-1.26-.41-6.15,1.49-7.4,1.99-.15.06-.31-.03-.33-.19-.08-.53-.3-1.61-.85-2.2-.12-.13-.08-.34.08-.4,1.32-.52,5.57-2.24,4.99-2.7-1.86-1.47-5.75-1.85-7.42-2.93"/>
</svg>